<?xml version="1.0"?>
<svg xmlns="http://www.w3.org/2000/svg" xmlns:xlink="http://www.w3.org/1999/xlink" xmlns:svgjs="http://svgjs.com/svgjs" version="1.1" width="512" height="512" x="0" y="0" viewBox="0 0 512 512" style="enable-background:new 0 0 512 512" xml:space="preserve" class=""><g><path xmlns="http://www.w3.org/2000/svg" d="m419.875 512h-223c-11.046 0-20-8.954-20-20v-39c0-11.028-8.972-20-20-20h-19.5c-43.837 0-79.5-35.663-79.5-79.5v-37.5h-7.898c-13.634 0-26.461-6.653-34.312-17.798-7.851-11.143-9.798-25.458-5.209-38.294 15.837-44.3 50.124-127.387 101.828-186.123 26.646-30.271 60.806-52.492 98.784-64.261 10.557-3.274 21.754 2.634 25.023 13.184 3.27 10.551-2.633 21.754-13.184 25.023-30.946 9.59-58.817 27.738-80.599 52.483-47.3 53.732-79.314 131.553-94.188 173.158-.094.263-.344.96.243 1.792.59.836 1.333.836 1.614.836h27.898c11.046 0 20 8.954 20 20v57.5c0 21.78 17.72 39.5 39.5 39.5h19.5c33.084 0 60 26.916 60 60v19h183.024s.095-74.331.095-74.484c0-54.516 36.134-111.308 36.68-112.552 4.439-10.114 16.235-14.716 26.351-10.278 10.115 4.438 14.717 16.235 10.278 26.351-1.214 2.768-33.314 47.964-33.314 97.225l-.113 93.764c-.015 11.035-8.965 19.974-20.001 19.974zm-31.503-428.71c8.196-9.476 1.578-24.29-11.002-24.29h-46.317l36.597-59h-70.986l-46.084 82.167c-7.529 13.424 2.246 29.833 17.719 29.833h40.177l-26.875 74.491c-.419.914-2.613 7.509 5.598 7.509 2.456 0 5.05-.995 6.761-2.699zm112.652 76.973c6.718-7.766 1.294-20.263-9.017-20.263h-37.961l29.994-48h-58.18l-37.77 67.343c-6.17 11.001 1.841 24.45 14.523 24.45h32.928l-22.027 61.052c-.343.749-1.528 6.154 4.588 6.154 2.013 0 4.139-.816 5.541-2.212z" fill="#3c3c42" data-original="#000000" style="" class=""/></g></svg>
