<?xml version="1.0"?>
<svg xmlns="http://www.w3.org/2000/svg" xmlns:xlink="http://www.w3.org/1999/xlink" xmlns:svgjs="http://svgjs.com/svgjs" version="1.1" width="512" height="512" x="0" y="0" viewBox="0 0 511.992 511.992" style="enable-background:new 0 0 512 512" xml:space="preserve" class=""><g><g xmlns="http://www.w3.org/2000/svg"><path d="m460.639 131.905c-8.045-16.307-19.173-31.082-33.131-44.055 2.653-2.419 4.38-5.69 4.833-9.343.582-4.69-1.002-9.296-4.343-12.638l-32.927-32.927c-5.024-5.022-12.948-5.733-19.354-1.767l-23.745 13.199c-30.269-10.336-64.022-15.804-97.87-15.804-1.834 0-3.672.028-5.509.068l4.042-10.986c.091-.248.169-.5.233-.756 1.03-4.087.136-8.338-2.455-11.664s-6.493-5.232-10.709-5.232h-36.64c-6.325 0-11.758 4.502-13.3 10.981l-8.271 28.975c-32.395 10.853-59.091 29.026-77.35 52.765-2.525 3.283-1.91 7.992 1.373 10.518 1.362 1.048 2.971 1.556 4.566 1.556 2.249 0 4.474-1.007 5.951-2.928 14.566-18.938 35.268-33.991 60.367-44.068l-6.337 22.202c-.015.051-.028.103-.042.155-1.365 5.201-.343 10.525 2.807 14.607 3.052 3.957 7.788 6.226 12.994 6.226h28.386l-7.261 49.37c-.179 1.211-.216 2.336-.115 3.436.647 7.079 6.083 12.217 12.925 12.217 3.564.039 9.061-2.472 11.832-7.567.279-.57 37.832-74.324 38.105-74.924 2.185-4.913 1.737-10.586-1.195-15.176-3.055-4.781-8.255-7.686-13.874-7.771l-17.651-.353 6.028-16.384c3.684-.174 7.4-.267 11.101-.267 27.346 0 54.597 3.735 79.778 10.861l-37.935 21.087c-.047.026-.094.052-.14.08-5.353 3.127-8.857 8.287-9.614 14.156-.731 5.668 1.274 11.345 5.504 15.575l27.126 27.126c-5.516 4.021-14.604 10.654-23.892 17.47-5.713-7.652-12.528-14.354-20.366-19.961-3.368-2.408-8.054-1.632-10.464 1.738-2.409 3.369-1.632 8.054 1.737 10.463 6.543 4.679 12.237 10.268 17.014 16.648-6.364 4.7-12.063 8.941-15.822 11.805-3.503-4.645-7.714-8.794-12.552-12.255-3.367-2.409-8.052-1.632-10.464 1.737-2.409 3.369-1.632 8.054 1.737 10.463 10.968 8.107 17.755 20.248 18.021 35.009 0 14.31-7.09 27.643-18.966 35.667-3.433 2.319-4.335 6.981-2.017 10.413 1.449 2.145 3.814 3.302 6.222 3.302 1.444 0 2.904-.417 4.191-1.287 16.011-10.817 25.569-28.796 25.569-48.096 0-2.598-.193-5.173-.537-7.716.732-.167 17.62-5.732 18.915-6.132.788 4.466 1.189 9.01 1.189 13.583 0 25.811-12.787 49.859-34.206 64.329-3.433 2.319-4.335 6.981-2.017 10.414 1.449 2.145 3.814 3.302 6.222 3.302 1.444 0 2.904-.417 4.191-1.286 25.554-17.264 40.81-45.959 40.81-76.759 0-6.158-.615-12.274-1.814-18.264l20.51-6.679c3.938-1.282 6.092-5.515 4.81-9.454-1.283-3.939-5.516-6.091-9.454-4.809l-51.837 16.879c13.328-10.195 56.934-41.923 57.441-42.292 2.2-1.637 3.577-4.145 3.776-6.88.2-2.735-.797-5.417-2.736-7.356l-31.731-31.731c-.957-.957-1.372-1.982-1.235-3.049.156-1.204.975-2.328 2.249-3.091l81.08-45.1 33.188 33.185-61.55 28.442c-2.763 1.277-4.748 3.825-5.311 6.816s.36 6.086 2.468 8.279l22.961 23.898c1.011 1.041 1.424 2.521 1.107 3.96-.18.815-.657 1.884-1.91 2.423l-14.677 4.779c-3.938 1.282-6.092 5.515-4.81 9.454 1.284 3.939 5.517 6.092 9.454 4.809l14.913-4.856c.124-.04.247-.084.368-.13 5.74-2.206 9.969-7.16 11.31-13.252 1.404-6.373-.462-12.964-4.965-17.605l-17.521-18.236 43.828-20.251c31.949 27.63 48.145 63.827 48.145 107.667 0 64.038-8.419 90.275-64.152 140.713-10.997 9.953-13.633 28.241-8.058 55.907.718 3.561 3.847 6.02 7.345 6.02.491 0 .989-.048 1.489-.149 4.061-.818 6.689-4.773 5.871-8.833-4.257-21.122-3.043-35.975 3.418-41.822 59.102-53.486 69.087-84.823 69.087-151.834.002-25.893-5.3-49.766-15.755-70.959zm-206.277-56.335c.894.014 1.372.654 1.497.85.271.425.23.722.172.897l-32.607 64.094 6.632-45.093c.382-2.595-.383-5.222-2.098-7.207s-4.202-3.124-6.825-3.124h-35.311c-.818 0-1.043-.292-1.117-.387-.213-.276-.371-.834-.189-1.583l19.701-69.017h33.411l-17.63 47.918c-1.005 2.731-.625 5.796 1.017 8.2 1.641 2.403 4.357 3.873 7.269 3.932z" fill="#3c3c42" data-original="#000000" style="" class=""/><path d="m413.107 429.506c-1.339-3.922-5.602-6.014-9.521-4.677-3.92 1.337-6.014 5.6-4.677 9.52 1.193 3.499 2.501 7.167 3.888 10.905 1.152 3.108.944 6.434-.588 9.365-1.524 2.917-4.119 4.975-7.308 5.797l-140.5 36.217c-5.547 1.431-11.357-1.489-13.511-6.792-8.421-20.743-28.154-69.313-78.395-62.509-3.508.476-7.005.967-10.451 1.451-16.984 2.385-34.542 4.854-42.398 3.567-16.583-2.714-25.68-9.56-28.63-21.544-1.845-7.361.426-13.151 3.696-18.373 3.812-6.815.636-14.866-4.493-18.416-3.247-2.249-6.853-3.738-9.559-4.647.043-1.406.856-3.459 4.134-5.822 1.646-1.186 2.74-2.988 3.035-4.994.294-2.006-.236-4.047-1.471-5.656 0-.27-5.652-6.532-13.266-12.729 6.009-4.333 16.854-13.722 15.4-24.157-.625-4.483-3.685-10.54-14.716-13.932-13.165-4.049-13.177-9.359-13.183-12.213-.009-3.929 1.898-6.475 8.873-11.845 10.126-7.795 21.697-17.937 30.746-34.046 3.072-5.47 3.439-12.152.981-17.876-1.439-3.348-3.43-6.5-5.354-9.547-2.761-4.373-5.89-9.328-5.223-12.192.375-1.61 1.408-3.793 2.604-6.322 2.939-6.213 6.965-14.723 7.811-27.672.93-14.272 3.91-27.789 8.858-40.176 1.536-3.847-.336-8.21-4.183-9.747-3.848-1.537-8.21.336-9.747 4.183-5.534 13.854-8.864 28.916-9.897 44.764-.658 10.095-3.709 16.543-6.401 22.233-1.499 3.169-2.915 6.163-3.654 9.334-2.09 8.972 2.818 16.745 7.148 23.603 1.688 2.674 3.283 5.2 4.255 7.46.627 1.46.523 3.184-.277 4.609-6.229 11.087-13.998 19.636-26.818 29.506-5.874 4.522-14.751 11.356-14.723 23.764.028 12.752 8.026 21.674 23.774 26.517 2.549.784 3.707 1.528 4.173 1.905-.747 2.417-5.967 7.618-11.09 10.961-.817.53-1.524 1.214-2.08 2.015-3.234 4.657-4.825 14.152 4.046 21.225 2.201 1.755 4.024 3.364 5.485 4.74-6.244 8.31-4.55 17.494-1.131 22.505 1.087 1.593 2.745 2.706 4.631 3.108.045.01 4.367.997 7.725 3.11-3.254 5.771-8.107 14.475-4.677 28.406 4.439 18.038 18.157 29.06 40.772 32.761 10.099 1.652 27.158-.742 46.906-3.516 3.423-.48 6.896-.968 10.379-1.44 34.029-4.611 50.14 22.885 62.482 53.287 4.118 10.144 14.027 16.51 24.587 16.509 2.176 0 4.381-.271 6.566-.834l140.5-36.217c7.247-1.868 13.391-6.743 16.857-13.374 3.474-6.646 3.968-14.493 1.357-21.529-1.332-3.615-2.595-7.158-3.747-10.533z" fill="#3c3c42" data-original="#000000" style="" class=""/><path d="m220.766 228.763c12.574 0 22.805-10.23 22.805-22.805s-10.23-22.805-22.805-22.805-22.806 10.23-22.806 22.805 10.23 22.805 22.806 22.805zm0-30.611c4.304 0 7.805 3.501 7.805 7.805s-3.501 7.805-7.805 7.805-7.806-3.501-7.806-7.805 3.502-7.805 7.806-7.805z" fill="#3c3c42" data-original="#000000" style="" class=""/><path d="m186.211 158.975c-14.686 10.906-23.453 28.325-23.453 46.596 0 18.958 9.296 36.758 24.867 47.614 1.307.911 2.802 1.348 4.282 1.348 2.37 0 4.701-1.12 6.159-3.211 2.369-3.398 1.535-8.073-1.863-10.442-11.55-8.052-18.445-21.252-18.445-35.309 0-13.749 6.341-26.343 17.396-34.553 3.325-2.47 4.02-7.167 1.55-10.493-2.469-3.325-7.166-4.02-10.493-1.55z" fill="#3c3c42" data-original="#000000" style="" class=""/><path d="m176.459 268.992c-7.743-5.398-14.376-12.082-19.714-19.863-2.343-3.416-7.01-4.286-10.427-1.943-3.416 2.343-4.286 7.011-1.942 10.427 6.364 9.279 14.272 17.247 23.505 23.684 1.307.911 2.802 1.348 4.282 1.348 2.37 0 4.701-1.12 6.159-3.211 2.369-3.399 1.535-8.074-1.863-10.442z" fill="#3c3c42" data-original="#000000" style="" class=""/><path d="m165.623 130.942c-23.438 17.406-37.431 45.206-37.431 74.365 0 5.8.54 11.605 1.606 17.256.535 2.836 4.183 6.837 8.761 5.979 4.07-.768 6.747-4.69 5.979-8.761-.894-4.736-1.347-9.606-1.347-14.475 0-24.799 11.436-47.515 31.374-62.323 3.325-2.469 4.02-7.167 1.55-10.493-2.468-3.324-7.167-4.017-10.492-1.548z" fill="#3c3c42" data-original="#000000" style="" class=""/></g></g></svg>
